<svg width="512" height="512" xmlns="http://www.w3.org/2000/svg">

 <g>
  <title>background</title>
  <rect fill="none" id="canvas_background" height="402" width="582" y="-1" x="-1"/>
 </g>
 <g>
  <title>Layer 1</title>
  <rect stroke="null" fill="#db0706" fill-rule="nonzero" y="-4.753918" x="-1.188481" width="514.971211" id="rect2987" height="518.536621"/>
  <rect stroke="#7c7171" transform="rotate(9.958518981933594 266.85714721679693,252.04785156249994) " id="svg_8" height="10.370138" width="552.811629" y="246.862773" x="-9.548666" stroke-width="NaN" fill="#565656"/>
  <rect stroke="#7c7171" transform="rotate(9.662288665771484 253.3870697021485,407.64978027343744) " id="svg_9" height="303.163318" width="577.995864" y="256.068105" x="-35.610856" stroke-opacity="null" stroke-width="NaN" fill="#421f1f"/>
  <path fill="#000000" id="Zynga" d="m354.16108,59.940559c0,0 27.5423,-2.61334 49.1245,11.57335c7.8223,-0.37333 14.1423,2.99557 18.2401,10.46225c4.1022,7.46668 11.5378,25.39116 5.5867,36.22231c-1.8578,2.24 -5.9601,-6.72892 -5.9601,-6.72892c0,0 -2.9777,10.83559 -8.56,14.93782c0.7467,22.4045 -8.1867,38.08008 -10.7911,43.31565c-1.12,2.98667 -0.3733,5.6089 0.7378,8.59558c1.12,2.98667 16.0133,55.63567 15.2667,73.18682c-0.7467,17.55114 -9.6756,38.4623 -16.7512,45.55565c1.4845,14.56447 -5.2089,26.89339 -8.56,32.86673c-3.3511,5.97335 -10.7911,28.37784 -12.6578,38.82675c-1.8622,10.46225 -2.6044,21.66672 -0.3689,25.02672c2.2356,3.36001 12.28,13.81781 11.5378,19.04449c-0.7467,5.22668 -11.5378,11.20002 -16.7511,11.20002c-5.2089,0 -16.009,-3.36001 -18.6134,-10.46224c-2.6,-7.09335 -2.9778,-19.40893 -1.1111,-26.50228c1.8578,-7.10224 14.5156,-59.00013 7.0756,-89.62686c-18.2401,8.21335 -48.7602,7.84891 -48.7602,7.84891c0,0 -5.2089,27.25783 -11.5378,42.93342c-2.2311,3.73334 -1.8622,29.1334 -1.8622,45.18232c0,16.05781 5.5823,41.07564 5.5823,41.07564c0,0 7.8177,5.6089 6.7022,12.69781c-1.1067,7.09779 -10.0489,11.20447 -17.8667,11.20447c-7.8134,0 -18.2312,-5.97335 -18.2312,-15.68448c0,-9.70669 1.48,-31.73785 0.7378,-47.79566c-0.7378,-16.05781 -0.3644,-26.51117 -2.9733,-36.59563c-2.6089,-10.08447 -10.0489,-36.59564 -10.7956,-57.13346c-2.6045,0 -5.2089,-1.86667 -5.2089,-1.86667c0,0 -12.2845,14.19114 -20.84,22.40449c1.1155,5.60002 4.0889,15.68448 4.0889,17.92449c0,2.24 2.24,4.10667 5.96,5.60001c3.72,1.50222 15.2533,7.8489 14.8844,14.19114c-0.3733,6.34668 -14.8889,7.46668 -27.5422,1.86667c-2.9734,-1.49334 -13.769,-37.70675 -15.2579,-42.56898c-1.4933,-4.85334 -2.6088,-7.46668 -0.7422,-11.5778c1.8578,-4.09779 7.0712,-17.54226 6.3289,-25.39117c-0.7466,-7.84001 -15.2622,-20.16448 -24.9378,-20.16448c-7.4445,0 -18.8178,11.41336 -27.169,17.92448c-10.0489,7.84891 -21.5822,19.79115 -24.56,21.65782c-2.9822,1.87556 -26.4267,44.44454 -30.8934,56.76012c-1.8578,4.85335 -5.5778,29.1334 -25.2978,28.37784c-8.9334,-0.74667 -17.1245,-10.45335 8.1867,-28.0045c6.4222,-14.84448 15.3555,-30.2534 15.9111,-33.33341c0.5556,-3.08 7.2578,-41.44897 18.4267,-77.85794c11.1645,-36.40452 27.6356,-53.769 30.6978,-56.29345c2.5156,-1.95112 3.9112,-3.08001 1.3956,-4.48001c-2.5067,-1.39556 -29.0267,-24.08894 -24,-72.25793c0.8355,-5.60002 3.3511,-4.20002 5.0222,8.68002c1.6755,12.88002 12,43.13342 34.8934,52.65789c2.2311,0.83555 18.7023,-11.76003 102.7158,-17.92449c0.56,-14.84447 2.7955,-30.52895 2.7955,-30.52895c0,0 -5.8622,-4.48001 -6.7022,-13.44447c-2.7911,4.4889 -4.4622,5.6089 -8.0934,5.04445c-3.6266,-0.55555 -3.3511,-17.9156 -2.5111,-30.24452c0.8445,-12.32447 15.0756,-17.64892 20.3823,-18.20448c6.9733,-3.64445 14.5111,-3.08 14.5111,-3.08c0,0 12.8267,-13.0667 49.1157,-7.09335z"/>
  <ellipse stroke="null" ry="7.428" rx="4.159677" id="svg_3" cy="108.628494" cx="329.685736" stroke-opacity="null" stroke-width="null" fill="#ffffff"/>
  <ellipse stroke="null" ry="7.428" rx="4.159677" id="svg_4" cy="106.845774" cx="373.065249" stroke-opacity="null" stroke-width="null" fill="#ffffff"/>
 </g>
</svg>